<svg width="246" height="34" viewBox="0 0 246 34" fill="none" xmlns="http://www.w3.org/2000/svg">
<path d="M64.3125 24L59.3125 17.3239H57.5227V24H55.7614V9.45455H57.5227V15.7614H58.2898L64.1136 9.45455H66.2159L60.3352 15.8466L66.4148 24H64.3125ZM71.674 24.2557C70.9827 24.2557 70.3554 24.1255 69.7919 23.8651C69.2285 23.5999 68.781 23.2188 68.4496 22.7216C68.1181 22.2197 67.9524 21.6136 67.9524 20.9034C67.9524 20.2784 68.0755 19.7718 68.3217 19.3835C68.5679 18.9905 68.897 18.6828 69.3089 18.4602C69.7209 18.2377 70.1754 18.072 70.6726 17.9631C71.1745 17.8494 71.6787 17.7595 72.1854 17.6932C72.8482 17.608 73.3857 17.544 73.7976 17.5014C74.2143 17.4541 74.5173 17.3759 74.7067 17.267C74.9008 17.1581 74.9979 16.9687 74.9979 16.6989V16.642C74.9979 15.9413 74.8061 15.3968 74.4226 15.0085C74.0438 14.6203 73.4685 14.4261 72.6967 14.4261C71.8965 14.4261 71.2692 14.6013 70.8146 14.9517C70.3601 15.3021 70.0405 15.6761 69.8558 16.0739L68.2649 15.5057C68.549 14.8428 68.9278 14.3267 69.4013 13.9574C69.8795 13.5833 70.4003 13.3229 70.9638 13.1761C71.532 13.0246 72.0907 12.9489 72.6399 12.9489C72.9903 12.9489 73.3928 12.9915 73.8473 13.0767C74.3066 13.1572 74.7493 13.3253 75.1754 13.581C75.6063 13.8366 75.9638 14.2225 76.2479 14.7386C76.532 15.2547 76.674 15.946 76.674 16.8125V24H74.9979V22.5227H74.9126C74.799 22.7595 74.6096 23.0128 74.3445 23.2827C74.0793 23.5526 73.7266 23.7822 73.2862 23.9716C72.8459 24.161 72.3085 24.2557 71.674 24.2557ZM71.9297 22.75C72.5926 22.75 73.1513 22.6198 73.6058 22.3594C74.0651 22.099 74.4107 21.7628 74.6428 21.3509C74.8795 20.9389 74.9979 20.5057 74.9979 20.0511V18.517C74.9268 18.6023 74.7706 18.6804 74.5291 18.7514C74.2924 18.8177 74.0178 18.8769 73.7053 18.929C73.3975 18.9763 73.0968 19.0189 72.8033 19.0568C72.5144 19.09 72.2801 19.1184 72.1001 19.142C71.6645 19.1989 71.2573 19.2912 70.8786 19.419C70.5045 19.5421 70.2015 19.7292 69.9695 19.9801C69.7422 20.2263 69.6286 20.5625 69.6286 20.9886C69.6286 21.571 69.844 22.0114 70.2749 22.3097C70.7105 22.6032 71.2621 22.75 71.9297 22.75ZM79.7333 28.0909V13.0909H81.3526V14.8239H81.5515C81.6746 14.6345 81.8451 14.393 82.0629 14.0994C82.2854 13.8011 82.6026 13.536 83.0146 13.304C83.4312 13.0672 83.9947 12.9489 84.7049 12.9489C85.6235 12.9489 86.4331 13.1785 87.1339 13.6378C87.8346 14.0971 88.3815 14.7481 88.7745 15.5909C89.1675 16.4337 89.364 17.428 89.364 18.5739C89.364 19.7292 89.1675 20.7306 88.7745 21.5781C88.3815 22.4209 87.837 23.0743 87.141 23.5384C86.445 23.9976 85.6424 24.2273 84.7333 24.2273C84.0326 24.2273 83.4715 24.1113 83.0501 23.8793C82.6287 23.6425 82.3043 23.375 82.0771 23.0767C81.8498 22.7737 81.6746 22.5227 81.5515 22.3239H81.4094V28.0909H79.7333ZM81.381 18.5455C81.381 19.3693 81.5018 20.0961 81.7433 20.7259C81.9847 21.3509 82.3375 21.8409 82.8015 22.196C83.2655 22.5464 83.8337 22.7216 84.506 22.7216C85.2068 22.7216 85.7915 22.5369 86.2603 22.1676C86.7338 21.7936 87.0889 21.2917 87.3256 20.6619C87.5671 20.0275 87.6879 19.322 87.6879 18.5455C87.6879 17.7784 87.5695 17.0871 87.3327 16.4716C87.1007 15.8513 86.748 15.3613 86.2745 15.0014C85.8058 14.6368 85.2163 14.4545 84.506 14.4545C83.8242 14.4545 83.2513 14.6274 82.7873 14.973C82.3233 15.3139 81.9729 15.7921 81.7362 16.4077C81.4994 17.0185 81.381 17.7311 81.381 18.5455ZM90.756 27.125V22.4375H91.6651C91.8877 22.2055 92.0794 21.9545 92.2404 21.6847C92.4014 21.4148 92.5411 21.0952 92.6594 20.7259C92.7826 20.3518 92.8867 19.8973 92.9719 19.3622C93.0572 18.8224 93.1329 18.1714 93.1992 17.4091L93.5685 13.0909H100.5V22.4375H102.176V27.125H100.5V24H92.4322V27.125H90.756ZM93.5685 22.4375H98.8242V14.6534H95.131L94.8469 17.4091C94.7286 18.5502 94.5818 19.5469 94.4066 20.3991C94.2314 21.2514 93.9521 21.9309 93.5685 22.4375ZM106.077 21.5284L111.333 13.0909H113.265V24H111.589V15.5625L106.362 24H104.401V13.0909H106.077V21.5284ZM120.767 24.2273C119.782 24.2273 118.918 23.9929 118.174 23.5241C117.436 23.0554 116.858 22.3996 116.441 21.5568C116.029 20.714 115.824 19.7292 115.824 18.6023C115.824 17.4659 116.029 16.474 116.441 15.6264C116.858 14.7789 117.436 14.1207 118.174 13.652C118.918 13.1832 119.782 12.9489 120.767 12.9489C121.752 12.9489 122.613 13.1832 123.352 13.652C124.095 14.1207 124.673 14.7789 125.085 15.6264C125.502 16.474 125.71 17.4659 125.71 18.6023C125.71 19.7292 125.502 20.714 125.085 21.5568C124.673 22.3996 124.095 23.0554 123.352 23.5241C122.613 23.9929 121.752 24.2273 120.767 24.2273ZM120.767 22.7216C121.515 22.7216 122.13 22.5298 122.613 22.1463C123.096 21.7628 123.454 21.2585 123.686 20.6335C123.918 20.0085 124.034 19.3314 124.034 18.6023C124.034 17.8731 123.918 17.1937 123.686 16.5639C123.454 15.9342 123.096 15.4252 122.613 15.0369C122.13 14.6487 121.515 14.4545 120.767 14.4545C120.019 14.4545 119.403 14.6487 118.92 15.0369C118.437 15.4252 118.08 15.9342 117.848 16.5639C117.616 17.1937 117.5 17.8731 117.5 18.6023C117.5 19.3314 117.616 20.0085 117.848 20.6335C118.08 21.2585 118.437 21.7628 118.92 22.1463C119.403 22.5298 120.019 22.7216 120.767 22.7216ZM134.717 24H132.871L138.212 9.45455H140.03L145.371 24H143.524L139.178 11.7557H139.064L134.717 24ZM135.399 18.3182H142.842V19.8807H135.399V18.3182ZM154.71 17.7784V19.3409H148.688V17.7784H154.71ZM149.085 13.0909V24H147.409V13.0909H149.085ZM155.989 13.0909V24H154.312V13.0909H155.989ZM162.26 24.2557C161.569 24.2557 160.941 24.1255 160.378 23.8651C159.814 23.5999 159.367 23.2188 159.036 22.7216C158.704 22.2197 158.538 21.6136 158.538 20.9034C158.538 20.2784 158.661 19.7718 158.908 19.3835C159.154 18.9905 159.483 18.6828 159.895 18.4602C160.307 18.2377 160.761 18.072 161.259 17.9631C161.76 17.8494 162.265 17.7595 162.771 17.6932C163.434 17.608 163.972 17.544 164.384 17.5014C164.8 17.4541 165.103 17.3759 165.293 17.267C165.487 17.1581 165.584 16.9687 165.584 16.6989V16.642C165.584 15.9413 165.392 15.3968 165.009 15.0085C164.63 14.6203 164.054 14.4261 163.283 14.4261C162.482 14.4261 161.855 14.6013 161.401 14.9517C160.946 15.3021 160.626 15.6761 160.442 16.0739L158.851 15.5057C159.135 14.8428 159.514 14.3267 159.987 13.9574C160.465 13.5833 160.986 13.3229 161.55 13.1761C162.118 13.0246 162.677 12.9489 163.226 12.9489C163.576 12.9489 163.979 12.9915 164.433 13.0767C164.893 13.1572 165.335 13.3253 165.761 13.581C166.192 13.8366 166.55 14.2225 166.834 14.7386C167.118 15.2547 167.26 15.946 167.26 16.8125V24H165.584V22.5227H165.499C165.385 22.7595 165.196 23.0128 164.93 23.2827C164.665 23.5526 164.313 23.7822 163.872 23.9716C163.432 24.161 162.894 24.2557 162.26 24.2557ZM162.516 22.75C163.179 22.75 163.737 22.6198 164.192 22.3594C164.651 22.099 164.997 21.7628 165.229 21.3509C165.465 20.9389 165.584 20.5057 165.584 20.0511V18.517C165.513 18.6023 165.357 18.6804 165.115 18.7514C164.878 18.8177 164.604 18.8769 164.291 18.929C163.983 18.9763 163.683 19.0189 163.389 19.0568C163.1 19.09 162.866 19.1184 162.686 19.142C162.25 19.1989 161.843 19.2912 161.464 19.419C161.09 19.5421 160.787 19.7292 160.555 19.9801C160.328 20.2263 160.214 20.5625 160.214 20.9886C160.214 21.571 160.43 22.0114 160.861 22.3097C161.296 22.6032 161.848 22.75 162.516 22.75ZM169.353 24V22.4375H169.751C170.078 22.4375 170.35 22.3736 170.568 22.2457C170.786 22.1132 170.961 21.8835 171.093 21.5568C171.231 21.2254 171.335 20.7661 171.406 20.179C171.482 19.5871 171.536 18.8343 171.569 17.9205L171.768 13.0909H179.041V24H177.365V14.6534H173.359L173.189 18.5455C173.151 19.4403 173.07 20.2287 172.947 20.9105C172.829 21.5876 172.646 22.1558 172.4 22.6151C172.159 23.0743 171.837 23.42 171.434 23.652C171.032 23.884 170.528 24 169.922 24H169.353ZM183.792 21.5284L189.048 13.0909H190.98V24H189.304V15.5625L184.076 24H182.116V13.0909H183.792V21.5284ZM192.565 14.6534V13.0909H201.429V14.6534H197.849V24H196.173V14.6534H192.565ZM205.55 21.5284L210.806 13.0909H212.738V24H211.061V15.5625L205.834 24H203.874V13.0909H205.55V21.5284ZM215.808 24V13.0909H217.484V17.8352H218.592L222.512 13.0909H224.671L220.268 18.3466L224.728 24H222.569L218.989 19.3977H217.484V24H215.808Z" fill="#080E29"/>
<path d="M5.73654 14.5347C5.80882 14.5347 5.88203 14.5263 5.9557 14.5086C6.45649 14.3882 6.76471 13.8846 6.6444 13.3839C6.46162 12.6248 6.36929 11.848 6.36929 11.0744C6.36929 6.47631 9.93172 2.73483 14.3101 2.73483C18.8415 2.73483 22.1619 5.89159 22.2062 10.241C22.2119 10.7526 22.6273 11.1638 23.1388 11.1638C23.6504 11.1638 24.0658 10.7522 24.0714 10.241C24.1161 5.89206 27.4371 2.73483 31.9679 2.73483C36.3468 2.73483 39.9092 6.47585 39.9092 11.0744C39.9092 11.8368 39.8202 12.6006 39.6434 13.3452C39.5245 13.846 39.8346 14.3486 40.3358 14.4675C40.8358 14.5836 41.3394 14.2767 41.4583 13.775C41.6677 12.8901 41.7743 11.9813 41.7743 11.0744C41.7743 5.44769 37.3749 0.86969 31.9679 0.86969C27.9267 0.86969 24.6635 2.91808 23.1388 6.09443C21.6145 2.91808 18.3519 0.86969 14.3101 0.86969C8.90309 0.86969 4.50415 5.44722 4.50415 11.0744C4.50415 11.9949 4.61419 12.9185 4.83102 13.8204C4.9336 14.2479 5.31549 14.5347 5.73654 14.5347Z" fill="#DA1010"/>
<path d="M35.2174 19.655L23.1383 31.6762L11.1407 19.7347C10.7756 19.3724 10.1858 19.3728 9.82162 19.738C9.45885 20.103 9.46025 20.6939 9.82489 21.0572L22.4808 33.6533C22.6631 33.8343 22.9005 33.9248 23.1387 33.9248C23.377 33.9248 23.6148 33.8343 23.7966 33.6533L36.5332 20.9773C36.898 20.6142 36.8998 20.0233 36.5366 19.6583C36.1719 19.2931 35.5826 19.2912 35.2174 19.655Z" fill="#DA1010"/>
<path d="M44.1646 16.0015V15.9983C43.9469 15.8216 43.6722 15.7115 43.3696 15.7115C43.0678 15.7115 42.7946 15.8216 42.5773 15.9983H28.9898C28.7725 15.8216 28.4987 15.7115 28.1971 15.7115C27.4977 15.7115 26.9326 16.2771 26.9326 16.9761C26.9326 17.0017 26.9385 17.025 26.94 17.0502L23.2979 21.8875L17.6124 10.5549C17.6399 10.4508 17.6595 10.3442 17.6595 10.2317C17.6595 9.53413 17.0934 8.96759 16.3954 8.96759C15.6968 8.96759 15.1309 9.53413 15.1309 10.2317C15.1309 10.2639 15.1383 10.2942 15.1406 10.3259L10.8727 15.9983H2.85771C2.63996 15.8216 2.36671 15.7115 2.06502 15.7115C1.36513 15.7115 0.799988 16.2771 0.799988 16.9761C0.799988 17.6746 1.36513 18.2407 2.06502 18.2407C2.41707 18.2407 2.73508 18.0956 2.96449 17.8635H11.3381C11.6314 17.8635 11.9074 17.7259 12.0836 17.4913L16.2364 11.9715L21.9386 23.3381C21.9003 23.4593 21.8738 23.5857 21.8738 23.7196C21.8738 24.4175 22.4393 24.9836 23.1383 24.9836C23.8369 24.9836 24.4038 24.4175 24.4038 23.7196C24.4038 23.659 24.3941 23.6011 24.3861 23.5428L28.3934 18.2202C28.6661 18.1772 28.9109 18.0513 29.0966 17.863H42.471C42.7 18.0951 43.018 18.2401 43.37 18.2401C44.0699 18.2401 44.6337 17.6742 44.6337 16.9756C44.6332 16.5812 44.6309 16.2333 44.1646 16.0015Z" fill="#DA1010"/>
</svg>
