<svg width="100" height="60" viewBox="0 0 209 85" fill="none" xmlns="http://www.w3.org/2000/svg">
<path d="M114.188 22.8755C114.237 22.8755 114.288 22.8698 114.338 22.8576C114.682 22.775 114.893 22.4294 114.811 22.0858C114.685 21.5648 114.622 21.0317 114.622 20.5008C114.622 17.3453 117.067 14.7776 120.072 14.7776C123.181 14.7776 125.46 16.944 125.491 19.9289C125.494 20.28 125.779 20.5622 126.131 20.5622C126.482 20.5622 126.767 20.2797 126.771 19.9289C126.801 16.9443 129.08 14.7776 132.19 14.7776C135.195 14.7776 137.64 17.3449 137.64 20.5008C137.64 21.024 137.579 21.5482 137.457 22.0592C137.376 22.4029 137.588 22.7478 137.932 22.8294C138.275 22.9091 138.621 22.6985 138.703 22.3542C138.846 21.7469 138.92 21.1232 138.92 20.5008C138.92 16.6393 135.9 13.4976 132.19 13.4976C129.416 13.4976 127.177 14.9033 126.131 17.0832C125.084 14.9033 122.845 13.4976 120.072 13.4976C116.361 13.4976 113.342 16.639 113.342 20.5008C113.342 21.1325 113.418 21.7664 113.566 22.3853C113.637 22.6787 113.899 22.8755 114.188 22.8755Z" fill="#DA1010"/>
<path d="M134.42 26.3894L126.13 34.6393L117.897 26.4441C117.646 26.1955 117.241 26.1958 116.991 26.4464C116.742 26.6969 116.743 27.1024 116.994 27.3517L125.679 35.9961C125.804 36.1203 125.967 36.1824 126.131 36.1824C126.294 36.1824 126.457 36.1203 126.582 35.9961L135.323 27.2969C135.573 27.0477 135.574 26.6422 135.325 26.3917C135.075 26.1411 134.67 26.1398 134.42 26.3894Z" fill="#DA1010"/>
<path d="M140.56 23.8822V23.88H140.559C140.41 23.7587 140.222 23.6832 140.014 23.6832C139.807 23.6832 139.62 23.7587 139.471 23.88H130.146C129.997 23.7587 129.809 23.6832 129.602 23.6832C129.122 23.6832 128.734 24.0713 128.734 24.551C128.734 24.5686 128.738 24.5846 128.739 24.6019L126.24 27.9216L122.338 20.1443C122.357 20.0729 122.37 19.9997 122.37 19.9225C122.37 19.4438 121.982 19.055 121.503 19.055C121.023 19.055 120.635 19.4438 120.635 19.9225C120.635 19.9446 120.64 19.9654 120.642 19.9872L117.713 23.88H112.212C112.063 23.7587 111.875 23.6832 111.668 23.6832C111.188 23.6832 110.8 24.0713 110.8 24.551C110.8 25.0304 111.188 25.4189 111.668 25.4189C111.91 25.4189 112.128 25.3193 112.285 25.16H118.032C118.233 25.16 118.423 25.0656 118.544 24.9046L121.394 21.1165L125.307 28.9171C125.281 29.0003 125.262 29.087 125.262 29.1789C125.262 29.6579 125.651 30.0464 126.13 30.0464C126.61 30.0464 126.999 29.6579 126.999 29.1789C126.999 29.1373 126.992 29.0976 126.987 29.0576L129.737 25.4048C129.924 25.3753 130.092 25.2889 130.219 25.1597H139.398C139.555 25.319 139.773 25.4185 140.015 25.4185C140.495 25.4185 140.882 25.0301 140.882 24.5507C140.882 24.28 140.88 24.0413 140.56 23.8822Z" fill="#DA1010"/>
<path d="M18.5625 35L9.5625 22.983H6.34091V35H3.17045V8.81818H6.34091V20.1705H7.72159L18.2045 8.81818H21.9886L11.4034 20.3239L22.3466 35H18.5625ZM31.8132 35.4602C30.5689 35.4602 29.4396 35.2259 28.4254 34.7571C27.4112 34.2798 26.6058 33.5938 26.0092 32.6989C25.4126 31.7955 25.1143 30.7045 25.1143 29.4261C25.1143 28.3011 25.3359 27.3892 25.7791 26.6903C26.2223 25.983 26.8146 25.429 27.5561 25.0284C28.2976 24.6278 29.1158 24.3295 30.0107 24.1335C30.9141 23.929 31.8217 23.767 32.7337 23.6477C33.9268 23.4943 34.8942 23.3793 35.6357 23.3026C36.3857 23.2173 36.9311 23.0767 37.272 22.8807C37.6214 22.6847 37.7962 22.3437 37.7962 21.858V21.7557C37.7962 20.4943 37.451 19.5142 36.7607 18.8153C36.0788 18.1165 35.0433 17.767 33.6541 17.767C32.2138 17.767 31.0845 18.0824 30.2663 18.7131C29.4482 19.3437 28.8729 20.017 28.5405 20.733L25.6768 19.7102C26.1882 18.517 26.87 17.5881 27.7223 16.9233C28.5831 16.25 29.5206 15.7812 30.5348 15.517C31.5575 15.2443 32.5632 15.108 33.5518 15.108C34.1825 15.108 34.907 15.1847 35.7251 15.3381C36.5518 15.483 37.3487 15.7855 38.1158 16.2457C38.8913 16.706 39.5348 17.4006 40.0462 18.3295C40.5575 19.2585 40.8132 20.5028 40.8132 22.0625V35H37.7962V32.3409H37.6428C37.4382 32.767 37.0973 33.223 36.62 33.7088C36.1428 34.1946 35.5078 34.608 34.7152 34.9489C33.9226 35.2898 32.9553 35.4602 31.8132 35.4602ZM32.2734 32.75C33.4666 32.75 34.4723 32.5156 35.2905 32.0469C36.1172 31.5781 36.7393 30.973 37.157 30.2315C37.5831 29.4901 37.7962 28.7102 37.7962 27.892V25.1307C37.6683 25.2841 37.3871 25.4247 36.9524 25.5526C36.5263 25.6719 36.032 25.7784 35.4695 25.8722C34.9155 25.9574 34.3743 26.0341 33.8459 26.1023C33.326 26.1619 32.9041 26.2131 32.5803 26.2557C31.7962 26.358 31.0632 26.5241 30.3814 26.7543C29.7081 26.9759 29.1626 27.3125 28.745 27.7642C28.3359 28.2074 28.1314 28.8125 28.1314 29.5795C28.1314 30.6278 28.5192 31.4205 29.2947 31.9574C30.0788 32.4858 31.0717 32.75 32.2734 32.75ZM46.32 42.3636V15.3636H49.2347V18.483H49.5927C49.8143 18.142 50.1211 17.7074 50.5131 17.179C50.9137 16.642 51.4847 16.1648 52.2262 15.7472C52.9762 15.321 53.9904 15.108 55.2688 15.108C56.9222 15.108 58.3796 15.5213 59.641 16.348C60.9023 17.1747 61.8867 18.3466 62.5941 19.8636C63.3015 21.3807 63.6552 23.1705 63.6552 25.233C63.6552 27.3125 63.3015 29.1151 62.5941 30.6406C61.8867 32.1577 60.9066 33.3338 59.6538 34.169C58.4009 34.9957 56.9563 35.4091 55.32 35.4091C54.0586 35.4091 53.0487 35.2003 52.2901 34.7827C51.5316 34.3565 50.9478 33.875 50.5387 33.3381C50.1296 32.7926 49.8143 32.3409 49.5927 31.983H49.337V42.3636H46.32ZM49.2859 25.1818C49.2859 26.6648 49.5032 27.973 49.9379 29.1065C50.3725 30.2315 51.0075 31.1136 51.8427 31.7528C52.6779 32.3835 53.7006 32.6989 54.9109 32.6989C56.1722 32.6989 57.2248 32.3665 58.0685 31.7017C58.9208 31.0284 59.56 30.125 59.9862 28.9915C60.4208 27.8494 60.6381 26.5795 60.6381 25.1818C60.6381 23.8011 60.4251 22.5568 59.9989 21.4489C59.5813 20.3324 58.9464 19.4503 58.0941 18.8026C57.2504 18.1463 56.1893 17.8182 54.9109 17.8182C53.6836 17.8182 52.6523 18.1293 51.8171 18.7514C50.9819 19.3651 50.3512 20.2259 49.9251 21.3338C49.4989 22.4332 49.2859 23.7159 49.2859 25.1818ZM66.1609 40.625V32.1875H67.7972C68.1978 31.7699 68.543 31.3182 68.8327 30.8324C69.1225 30.3466 69.3739 29.7713 69.587 29.1065C69.8086 28.4332 69.9961 27.6151 70.1495 26.652C70.3029 25.6804 70.4393 24.5085 70.5586 23.1364L71.2234 15.3636H83.7006V32.1875H86.7177V40.625H83.7006V35H69.1779V40.625H66.1609ZM71.2234 32.1875H80.6836V18.1761H74.0359L73.5245 23.1364C73.3114 25.1903 73.0472 26.9844 72.7319 28.5185C72.4165 30.0526 71.9137 31.2756 71.2234 32.1875ZM93.7393 30.5511L103.2 15.3636H106.677V35H103.66V19.8125L94.2507 35H90.7223V15.3636H93.7393V30.5511Z" fill="#ffffff"/>
<path d="M46.2443 76H42.9205L52.5341 49.8182H55.8068L65.4205 76H62.0966L54.2727 53.9602H54.0682L46.2443 76ZM47.4716 65.7727H60.8693V68.5852H47.4716V65.7727ZM82.2315 64.8011V67.6136H71.3906V64.8011H82.2315ZM72.1065 56.3636V76H69.0895V56.3636H72.1065ZM84.5327 56.3636V76H81.5156V56.3636H84.5327ZM95.821 76.4602C94.5767 76.4602 93.4474 76.2259 92.4332 75.7571C91.419 75.2798 90.6136 74.5938 90.017 73.6989C89.4205 72.7955 89.1222 71.7045 89.1222 70.4261C89.1222 69.3011 89.3438 68.3892 89.7869 67.6903C90.2301 66.983 90.8224 66.429 91.5639 66.0284C92.3054 65.6278 93.1236 65.3295 94.0185 65.1335C94.9219 64.929 95.8295 64.767 96.7415 64.6477C97.9347 64.4943 98.902 64.3793 99.6435 64.3026C100.393 64.2173 100.939 64.0767 101.28 63.8807C101.629 63.6847 101.804 63.3437 101.804 62.858V62.7557C101.804 61.4943 101.459 60.5142 100.768 59.8153C100.087 59.1165 99.0511 58.767 97.6619 58.767C96.2216 58.767 95.0923 59.0824 94.2741 59.7131C93.456 60.3437 92.8807 61.017 92.5483 61.733L89.6847 60.7102C90.196 59.517 90.8778 58.5881 91.7301 57.9233C92.5909 57.25 93.5284 56.7812 94.5426 56.517C95.5653 56.2443 96.571 56.108 97.5597 56.108C98.1903 56.108 98.9148 56.1847 99.733 56.3381C100.56 56.483 101.357 56.7855 102.124 57.2457C102.899 57.706 103.543 58.4006 104.054 59.3295C104.565 60.2585 104.821 61.5028 104.821 63.0625V76H101.804V73.3409H101.651C101.446 73.767 101.105 74.223 100.628 74.7088C100.151 75.1946 99.5156 75.608 98.723 75.9489C97.9304 76.2898 96.9631 76.4602 95.821 76.4602ZM96.2812 73.75C97.4744 73.75 98.4801 73.5156 99.2983 73.0469C100.125 72.5781 100.747 71.973 101.165 71.2315C101.591 70.4901 101.804 69.7102 101.804 68.892V66.1307C101.676 66.2841 101.395 66.4247 100.96 66.5526C100.534 66.6719 100.04 66.7784 99.4773 66.8722C98.9233 66.9574 98.3821 67.0341 97.8537 67.1023C97.3338 67.1619 96.9119 67.2131 96.5881 67.2557C95.804 67.358 95.071 67.5241 94.3892 67.7543C93.7159 67.9759 93.1705 68.3125 92.7528 68.7642C92.3438 69.2074 92.1392 69.8125 92.1392 70.5795C92.1392 71.6278 92.527 72.4205 93.3026 72.9574C94.0866 73.4858 95.0795 73.75 96.2812 73.75ZM108.589 76V73.1875H109.305C109.893 73.1875 110.383 73.0724 110.775 72.8423C111.167 72.6037 111.483 72.1903 111.721 71.6023C111.968 71.0057 112.156 70.179 112.284 69.1222C112.42 68.0568 112.518 66.7017 112.578 65.0568L112.936 56.3636H126.027V76H123.01V59.1761H115.799L115.493 66.1818C115.424 67.7926 115.279 69.2116 115.058 70.4389C114.845 71.6577 114.517 72.6804 114.074 73.5071C113.639 74.3338 113.059 74.956 112.335 75.3736C111.61 75.7912 110.703 76 109.612 76H108.589ZM134.579 71.5511L144.039 56.3636H147.517V76H144.5V60.8125L135.091 76H131.562V56.3636H134.579V71.5511ZM150.371 59.1761V56.3636H166.325V59.1761H159.882V76H156.865V59.1761H150.371ZM173.743 71.5511L183.203 56.3636H186.681V76H183.664V60.8125L174.255 76H170.726V56.3636H173.743V71.5511ZM192.207 76V56.3636H195.224V64.9034H197.218L204.275 56.3636H208.161L200.235 65.8239L208.263 76H204.377L197.934 67.7159H195.224V76H192.207Z" fill="#ffffff"/>
</svg>
